<svg width="100%" height="100%" viewBox="0 0 476 514" version="1.1" xmlns="http://www.w3.org/2000/svg" xmlns:xlink="http://www.w3.org/1999/xlink" style="fill-rule:evenodd;clip-rule:evenodd;stroke-linejoin:round;stroke-miterlimit:2;">
    <g id="plant-straight" transform="matrix(1,0,0,1,-702.999,-328.06)">
        <g transform="matrix(1,0,0,1,684.82,328.06)">
            <path d="M486.693,261.282C485.454,260.202 455.901,234.604 416.956,215.034C380.718,196.825 348.334,190.098 321.325,194.896C335.757,165.437 332.394,127.128 311.122,82.388C291.352,40.81 263.397,8.492 262.217,7.136L256.003,0L249.788,7.136C248.608,8.491 220.652,40.811 200.884,82.388C179.653,127.039 176.259,165.286 190.592,194.722C169.513,190.941 145.196,194.316 117.883,204.859L123.819,220.237C161.994,205.5 192.788,206.304 215.35,222.634C226.727,230.861 236.223,243.155 243.675,259.253L220.956,259.253L190.403,228.699L178.748,240.355L197.646,259.252L166.012,259.252L135.459,228.698L123.804,240.354L142.702,259.251L107.651,259.251L107.651,275.735L142.698,275.735L123.8,294.632L135.455,306.288L166.008,275.734L197.642,275.734L178.744,294.631L190.399,306.287L220.952,275.733L243.672,275.733C231.743,301.454 214.701,317.282 192.891,322.833C138.318,336.719 66.957,285.677 43.767,267.481C55.249,258.446 78.548,241.337 105.751,228.126L98.55,213.299C57.923,233.029 26.623,260.134 25.31,261.278L18.179,267.493L25.313,273.705C28.847,276.782 104.238,341.666 173.181,341.665C181.226,341.665 189.184,340.78 196.929,338.812C222.214,332.386 242.025,315.335 256.008,288.05C269.982,315.308 289.766,332.352 315.016,338.794C322.612,340.731 330.617,341.698 339.026,341.698C365.47,341.698 395.869,332.132 429.746,313.106C462.317,294.814 485.709,274.558 486.689,273.704L493.822,267.493L486.693,261.282ZM283.142,160.567L264.244,179.465L264.244,147.831L294.797,117.278L283.142,105.622L264.244,124.52L264.244,89.473L247.76,89.473L247.76,124.521L228.862,105.623L217.207,117.279L247.76,147.832L247.76,179.466L228.862,160.568L217.207,172.224L247.76,202.777L247.76,233.064C241.147,223.418 233.552,215.456 225.011,209.279C222.422,207.405 219.754,205.697 217.011,204.15C165.797,149.739 234.27,53.337 256.003,25.608C277.755,53.361 346.281,149.85 294.908,204.24C292.192,205.763 289.548,207.43 286.997,209.276C278.453,215.454 270.857,223.416 264.243,233.062L264.243,202.775L294.796,172.222L283.142,160.567ZM319.093,322.826C297.3,317.267 280.264,301.446 268.338,275.735L291.05,275.735L321.603,306.289L333.258,294.633L314.36,275.736L345.994,275.736L376.547,306.29L388.202,294.634L369.304,275.737L404.351,275.737L404.351,259.253L369.304,259.253L388.202,240.356L376.547,228.7L345.994,259.254L314.36,259.254L333.258,240.357L321.603,228.701L291.05,259.255L268.335,259.255C275.787,243.159 285.28,230.862 296.659,222.634C351.892,182.661 441.666,246.644 468.232,267.499C445.046,285.713 373.738,336.769 319.093,322.826Z" style="fill:rgb(37,108,95);fill-rule:nonzero;stroke:rgb(37,108,95);stroke-width:1px;"/>
        </g>
        <g transform="matrix(1,0,0,0.790525,-13.7225,112.19)">
            <path d="M954.543,688.129L954.543,908.378" style="fill:none;stroke:rgb(37,108,95);stroke-width:18.31px;stroke-linecap:square;stroke-miterlimit:1.5;"/>
        </g>
        <g transform="matrix(1,0,0,1,684.82,328.06)">
            <rect x="245.014" y="59.253" width="21.978" height="16.484" style="fill:rgb(37,108,95);"/>
        </g>
        <g transform="matrix(1,0,0,1,684.82,328.06)">
            <rect x="415.343" y="259.253" width="21.978" height="16.484" style="fill:rgb(37,108,95);"/>
        </g>
        <g transform="matrix(1,0,0,1,684.82,328.06)">
            <rect x="74.684" y="259.253" width="21.978" height="16.484" style="fill:rgb(37,108,95);"/>
        </g>
    </g>
</svg>
