
<svg width="100%" height="100%" viewBox="0 0 303 303" version="1.1" xmlns="http://www.w3.org/2000/svg" xmlns:xlink="http://www.w3.org/1999/xlink" style="fill-rule:evenodd;clip-rule:evenodd;stroke-linecap:round;stroke-linejoin:round;stroke-miterlimit:1.5;">
    <g class="logo" transform="matrix(1.62589,0,0,1.07389,-658.452,-2386.65)">
        <g class="circle" transform="matrix(8.08019,6.16257e-17,-4.24492e-17,-12.2336,-1136.18,5662.65)">
            <circle cx="202.265" cy="269.676" r="11.418" style="fill:rgb(211,232,205);stroke:rgb(211,232,205);stroke-width:0.23px;"/>
        </g>
        <g class="rectangle" transform="matrix(3.8124,0,0,5.05485,-1191.09,-6598.09)">
            <path d="M462.453,1766.23L462.453,1780.05C462.453,1783.86 459.742,1786.96 456.403,1786.96L429.784,1786.96C426.445,1786.96 423.734,1783.86 423.734,1780.05L423.734,1766.23C423.734,1762.42 426.445,1759.32 429.784,1759.32L456.403,1759.32C459.742,1759.32 462.453,1762.42 462.453,1766.23Z" style="fill:rgb(225,245,253);stroke:rgb(237,237,216);stroke-width:0.51px;"/>
        </g>
        <g class="body" transform="matrix(0.87269,0,0,1.32128,190.439,47.7007)">
            <path d="M321.316,1767.36C321.315,1767.36 321.314,1767.36 321.314,1767.36C321.314,1767.36 321.317,1767.36 321.316,1767.36ZM321.716,1767.38C321.79,1767.41 319.859,1765.12 316.766,1762.35C311.08,1757.25 316.486,1748.2 321.565,1754.32C325.481,1759.05 325.547,1759.53 325.547,1759.53L326.583,1761.15C333.488,1758.26 332.236,1754.6 333.578,1750.11C336.474,1740.43 349.983,1729.73 359.391,1728.12C371.942,1725.97 385.236,1735.34 388.634,1744.35C398.47,1770.42 373.858,1780.09 357.266,1778.73C350.659,1778.2 343.351,1774.45 338.11,1772.58C335.806,1771.76 334.393,1771.64 331.894,1772.15C330.092,1778.84 327.111,1779.49 317.95,1779.65C311.658,1779.76 321.711,1767.43 321.716,1767.38Z" style="stroke:rgb(0,144,255);stroke-width:2.11px;"/>
        </g>
        <g class="right-eye" transform="matrix(1.68571,0,0,2.55211,-236.992,-2169.21)">
            <ellipse cx="447.992" cy="1770.81" rx="0.848" ry="0.786" style="fill:rgb(0,144,255);"/>
        </g>
        <g class="left-eye" transform="matrix(1.68571,0,0,2.55211,-243.14,-2169.21)">
            <ellipse cx="447.992" cy="1770.81" rx="0.848" ry="0.786" style="fill:rgb(0,144,255);"/>
        </g>
        <g class="smile">
            <g class="mouth" transform="matrix(2.82633,0,0,5.58719,-749.237,-7546.24)">
                <path d="M446.633,1774.54L448.942,1774.54" style="fill:none;stroke:rgb(0,144,255);stroke-width:0.56px;"/>
            </g>
            <g class="left-dimple" transform="matrix(3.69028,0,0,5.58719,-1135.1,-7546.24)">
                <path d="M445.961,1773.9C445.961,1773.9 447.313,1774.58 445.961,1775.18" style="fill:none;stroke:rgb(0,144,255);stroke-width:0.5px;"/>
            </g>
            <g class="right-dimple" transform="matrix(-3.69028,0,0,5.58719,2167.56,-7546.24)">
                <path d="M445.961,1773.9C445.961,1773.9 447.313,1774.58 445.961,1775.18" style="fill:none;stroke:rgb(0,144,255);stroke-width:0.5px;"/>
            </g>
        </g>
    </g>
</svg>
