<svg fill="#60D2AC" version="1.1" id="Capa_1" xmlns="http://www.w3.org/2000/svg" xmlns:xlink="http://www.w3.org/1999/xlink" width="800px" height="800px" viewBox="0 0 491 491" xml:space="preserve">
<g class="SVGRepo_bgCarrier" stroke-width="0"/>
<g class="SVGRepo_tracerCarrier" stroke-linecap="round" stroke-linejoin="round"/>
<g class="SVGRepo_iconCarrier"> <g> <g> <path d="M120.847,0v17.128H75.171V0h-28.07v491h28.07v-17.128h45.675V491h30.45V359.572h188.407V491h29.498v-17.128h45.674V491 h29.023V0h-29.023v17.128h-45.674V0h-29.498v131.428H151.296V0H120.847z M120.847,435.812H75.171v-45.676h45.675V435.812z M120.847,352.072H75.171v-45.676h45.675V352.072z M120.847,268.337H75.171v-45.674h45.675V268.337z M120.847,184.602H75.171 v-45.674h45.675V184.602z M120.847,100.863H75.171V55.189h45.675V100.863z M369.201,55.189h45.674v45.674h-45.674V55.189z M369.201,138.927h45.674v45.674h-45.674V138.927z M369.201,222.663h45.674v45.674h-45.674V222.663z M369.201,306.396h45.674 v45.676h-45.674V306.396z M369.201,390.137h45.674v45.675h-45.674V390.137z M339.703,178.359v134.284H151.296V178.359H339.703z"/> </g> </g> </g>
</svg>