
<svg class='jeremy-logo' width="100%" height="100%" viewBox="0 0 942 193" version="1.1" xmlns:serif="http://www.serif.com/" style="fill-rule:evenodd;clip-rule:evenodd;stroke-linecap:round;stroke-linejoin:round;stroke-miterlimit:1.5;">
    <path class='firstname' d="M68.933,16.572C47.691,16.218 26.535,16.458 5.816,18.342C2.885,18.608 0.288,16.444 0.022,13.513C-0.245,10.582 1.919,7.985 4.85,7.719C54.44,3.211 106.517,8.01 156.33,8.01C159.273,8.01 161.663,10.4 161.663,13.343C161.663,16.287 159.273,18.676 156.33,18.676C131.138,18.676 105.363,17.429 79.627,16.795C77.828,33.131 86.236,52.167 93.053,71.319C100.73,92.891 106.417,114.559 98.189,133.098C96.047,137.925 91.145,141.563 84.722,143.482C76.647,145.895 66.147,145.672 58.057,143.049C51.719,140.995 46.869,137.385 44.732,132.935C43.061,129.456 42.763,125.377 44.743,120.732C45.897,118.024 49.033,116.763 51.741,117.917C54.448,119.072 55.71,122.207 54.555,124.915C52.73,129.196 56.78,131.422 61.347,132.902C67.512,134.901 75.514,135.101 81.669,133.262C84.737,132.345 87.416,131.077 88.44,128.771C95.626,112.577 89.71,93.738 83.004,74.896C75.745,54.501 67.404,34.088 68.933,16.572ZM332.597,114.981C340.475,96.549 350.46,78.982 361.687,63.496C363.415,61.113 366.752,60.581 369.135,62.309C371.519,64.037 372.051,67.374 370.323,69.757C346.844,102.142 328.955,144.018 325.512,183.271C325.45,183.98 325.259,185.847 325.158,186.825C325.173,187.197 325.149,187.576 325.083,187.958L324.231,190.246L323.073,191.512L321.832,192.244L320.466,192.614L318.832,192.578L317.148,191.973L315.648,190.717L314.842,189.378L314.429,187.215C314.434,186.767 314.778,183.571 314.886,182.338C316.535,163.536 321.331,144.15 328.404,125.405L328.185,125.398L326.506,124.791L325.063,123.691L323.991,122.294C323.71,121.833 323.405,121.237 323.101,120.513C320.06,113.264 315.401,86.417 315.401,79.971C315.401,77.027 317.79,74.638 320.734,74.638C323.678,74.638 326.067,77.027 326.067,79.971C326.067,85.371 329.669,106.724 332.37,114.849C332.447,114.892 332.523,114.935 332.597,114.981ZM315.828,183.52C315.306,184.045 314.794,184.864 314.573,186.135C314.748,185.127 315.196,184.234 315.828,183.52ZM121.03,121.317C120.814,124.585 121.203,127.489 124.557,129.13C132.631,133.077 139.092,135.432 145.383,134.197C149.382,133.412 153.212,131.123 157.37,127.167C159.503,125.138 162.882,125.222 164.911,127.354C166.94,129.487 166.855,132.865 164.723,134.894C158.782,140.547 153.152,143.542 147.439,144.664C139.161,146.289 130.494,143.906 119.872,138.712C110.917,134.333 109.696,126.526 110.688,117.45C111.753,107.7 115.986,100.491 125.023,96.887C130.147,94.843 133.832,95.14 136.16,96.112L138.541,97.586L140.308,99.74L141.093,101.562L141.453,103.387C141.559,104.452 141.5,105.608 141.247,106.816C139.949,113.001 132.533,121.516 121.03,121.317ZM124.217,110.289C126.221,109.772 127.865,108.741 129.054,107.508C129.32,107.232 129.573,106.88 129.8,106.513C129.52,106.595 129.24,106.689 128.974,106.795C126.924,107.612 125.375,108.801 124.217,110.289ZM174.724,108.476C175.478,107.37 176.626,106.59 177.919,106.287C183.837,102.811 188.642,102.209 192.436,102.887C196.81,103.668 200.148,106.184 202.614,109.307C205.143,112.509 207.312,117.807 207.774,118.974C208.824,120.357 209.179,122.226 208.555,123.984C207.572,126.758 204.521,128.212 201.746,127.228L200.417,126.542L199.062,125.212C198.674,124.687 198.064,123.443 197.363,121.739C196.783,120.327 195.981,118.394 194.764,116.625C193.909,115.383 192.857,114.159 191.346,113.6C189.388,112.877 186.971,113.373 183.753,115.222C182.519,121.016 181.763,127.061 181.68,133.038C181.77,133.816 181.839,134.542 181.872,135.199C181.954,136.818 181.955,139.594 181.903,140.2L181.202,142.491L180.045,143.891L178.025,144.976L176.079,145.156L174.797,144.876L173.405,144.139L172.501,143.296L171.717,142.065L171.174,139.502C171.045,137.471 170.992,135.423 171.011,133.367C170.568,129.477 169.67,124.367 169.928,119.902C170.199,115.214 171.689,111.162 174.724,108.476ZM213.999,122.228C213.825,116.756 215.426,111.465 218.906,107.396C222.872,102.76 229.38,99.494 239.098,99.948C241.212,100.047 243.329,100.53 244.965,101.602L247.119,103.637L247.923,104.979L248.469,106.429C250.648,114.153 249.426,119.42 246.843,123.064C244.389,126.525 240.445,128.726 235.677,129.865C233.185,130.461 230.445,130.767 227.681,130.925C229.072,132.933 230.914,134.642 233.152,135.783C238.483,138.499 245.756,137.669 254.383,131.256C256.745,129.5 260.089,129.992 261.845,132.354C263.601,134.716 263.109,138.06 260.747,139.816C247.674,149.535 236.388,149.403 228.309,145.287C222.246,142.197 217.837,136.664 215.616,130.525C213.868,129.649 212.667,127.841 212.667,125.754C212.667,124.403 213.17,123.169 213.999,122.228ZM224.686,120.401C227.388,120.336 230.121,120.145 232.605,119.623C234.888,119.144 236.989,118.519 238.141,116.894C239.163,115.453 239.2,113.423 238.535,110.6C233.073,110.357 229.246,111.717 227.012,114.329C225.564,116.022 224.846,118.154 224.686,120.401ZM276.631,106.71C278.116,104.139 279.447,102.648 280.443,101.888L282.573,100.747L284.616,100.419L286.358,100.676L287.886,101.364L289.205,102.447L290.349,104.046C290.907,105.077 291.416,106.632 291.732,108.608C292.222,111.678 292.363,116.177 292.424,120.779C292.43,121.261 292.44,121.759 292.452,122.269C292.511,122.172 292.571,122.075 292.632,121.976C296.791,115.227 301.549,113.795 304.772,114.356L306.508,114.858L308.039,115.676L310.35,117.862C312.375,120.483 313.898,125.338 313.727,131.638C313.698,132.71 313.672,133.874 313.65,134.966C315.141,135.061 316.585,135.779 317.559,137.062C319.339,139.406 318.881,142.754 316.537,144.535C313.875,146.556 311.819,147.241 310.463,147.37L308.922,147.347L307.242,146.9L305.709,145.994L304.571,144.833L303.479,142.794C303.237,142.112 303.047,141.282 302.945,140.311C302.727,138.242 302.964,135.053 303.064,131.348C303.108,129.723 302.789,127.873 302.479,126.494C302.207,126.838 301.939,127.206 301.713,127.572C299.394,131.335 298.127,133.747 296.137,137.559C294.865,139.996 293.641,141.328 292.776,141.979L290.825,142.998L288.907,143.285L287.279,143.033L285.864,142.393L284.654,141.411L283.623,140.009C282.633,138.241 281.958,133.317 281.844,127.462C281.806,125.553 281.717,123.271 281.608,120.973C280.15,124.484 278.886,128.09 277.882,131.637C277.086,134.448 276.29,135.851 275.901,136.345L275.008,137.257L273.849,137.984L271.795,138.489L269.71,138.174L268.665,137.665L267.584,136.775L266.621,135.368L266.082,133.657C265.807,132.101 266.024,126.99 266.134,122.31C266.278,116.201 266.248,114.202 266.248,108.43C266.248,105.486 268.637,103.096 271.581,103.096C273.923,103.096 275.915,104.609 276.631,106.71Z"/>
    <path class='lastname' d="M584.67,85.463C584.105,71.875 582.975,58.315 580.754,44.797C579.553,37.485 579.051,31.914 579.498,27.658C579.885,23.976 580.956,21.083 582.665,18.743C584.417,16.344 586.866,14.469 590.278,13.102C594.184,11.536 599.632,10.622 607.044,10.09C624.144,8.861 641.39,7.667 658.434,5.809C661.361,5.49 663.995,7.607 664.314,10.533C664.633,13.459 662.517,16.094 659.59,16.413C642.416,18.285 625.039,19.491 607.808,20.729C602.713,21.095 598.728,21.592 595.679,22.507C593.676,23.108 592.185,23.794 591.279,25.034C590.32,26.347 590.063,28.12 590.005,30.404C589.921,33.738 590.429,37.886 591.28,43.068C593.402,55.986 594.555,68.941 595.175,81.923C601.688,81.328 609.696,81.523 611.327,81.446C614.267,81.309 616.766,83.584 616.903,86.525C617.041,89.465 614.765,91.964 611.825,92.101C610.216,92.177 601.483,91.734 595.569,92.46C596.019,108.56 595.83,124.697 595.83,140.855C595.83,143.799 593.44,146.189 590.497,146.189C587.553,146.189 585.163,143.799 585.163,140.855C585.163,125.272 585.356,109.707 584.96,94.178C583.682,93.203 582.858,91.665 582.858,89.936L583.004,88.573L583.422,87.304L584.67,85.463ZM643.036,75.928C643.024,76.322 643.015,76.671 643.01,76.917C642.951,79.86 640.514,82.201 637.571,82.142C634.628,82.083 632.287,79.646 632.346,76.703C632.376,75.192 632.401,72.179 632.658,70.719L633.168,68.969L634.043,67.557L635.497,66.332L637.125,65.707L638.995,65.644L641.142,66.424L642.224,67.3L643.01,68.31C643.295,68.765 643.701,69.568 644.101,70.869C644.661,72.69 644.197,74.584 643.036,75.928ZM631.371,92.393C632.101,89.541 635.009,87.819 637.861,88.549C640.712,89.279 642.435,92.187 641.705,95.038C638.194,108.752 633.765,125.976 635.907,140.053C636.35,142.963 634.347,145.685 631.437,146.128C628.527,146.571 625.804,144.568 625.362,141.658C623.019,126.265 627.532,107.388 631.371,92.393ZM660.976,94.953C664.669,97.391 670.856,99.963 676.704,103.187C682.515,106.39 688.038,110.117 691.56,114.421C695.963,119.801 697.669,126.027 694.605,133.34C691.851,139.912 688.26,143.018 681.274,144.663C673.368,146.525 664.575,146.333 656.494,145.858C653.556,145.685 651.31,143.159 651.483,140.221C651.656,137.282 654.182,135.037 657.12,135.21C664.198,135.626 671.905,135.911 678.83,134.28C681.946,133.546 683.538,132.15 684.767,129.218C686.998,123.893 683.094,120.152 678.426,116.786C671.717,111.946 662.743,108.218 656.96,104.882C653.839,103.081 651.494,101.252 650.211,99.577L649.167,97.894L648.466,95.726L648.365,94.059L648.639,92.38L649.246,90.854L650.075,89.561C650.767,88.664 651.765,87.72 653.185,86.81C655.463,85.351 659.25,83.776 665.016,82.198C667.855,81.42 670.791,83.094 671.569,85.933C672.346,88.772 670.672,91.708 667.833,92.486C665.176,93.213 662.709,94.193 660.976,94.953ZM711.655,92.466C711.985,91.844 712.319,91.274 712.654,90.755C714.601,87.742 716.795,86.069 718.906,85.249C723.949,83.288 730.102,85.909 734.968,93.224C741.648,103.268 746.972,122.297 746.361,135.344C746.223,138.284 743.724,140.56 740.783,140.422C737.843,140.284 735.568,137.785 735.706,134.845C736.224,123.785 731.749,107.645 726.086,99.132C725.207,97.809 724.316,96.694 723.389,95.898C723.161,95.702 722.804,95.482 722.579,95.35C722.408,95.521 722.125,95.819 721.928,96.086C721.365,96.851 720.838,97.837 720.319,99.046C719.322,101.368 718.419,104.393 717.602,108.213C715.392,118.556 713.891,131.137 713.891,141.657C713.891,142.437 713.86,142.903 713.838,143.103L713.493,144.518L712.649,145.959L711.551,146.969L710.17,147.653L708.366,147.912L706.449,147.496L704.774,146.379L703.863,145.186L703.203,143.18C703.009,141.814 702.492,131.92 702.363,128.11C702.088,119.949 702.013,111.784 701.601,103.629C699.943,70.82 696.463,38.532 693.132,5.874C692.834,2.946 694.969,0.326 697.897,0.028C700.826,-0.271 703.445,1.864 703.744,4.792C706.733,34.1 709.837,63.113 711.655,92.466ZM762.702,118.869C764.29,114.418 765.927,110.199 767.467,107.285C768.61,105.122 769.815,103.534 770.871,102.606L772.94,101.277L775.003,100.749L777.005,100.881L778.824,101.592C780.314,102.448 782.489,104.838 783.584,110.215C783.655,110.567 783.734,110.915 783.817,111.256C784.222,110.716 784.624,110.162 784.986,109.631C788.166,104.977 792.16,98.863 797.293,93.441C798.163,92.523 799.012,91.866 799.804,91.402L802.034,90.483L804.223,90.265L806.386,90.7L808.18,91.63L809.531,92.788C810.407,93.701 811.253,94.967 811.971,96.564C815.551,104.518 816.402,123.98 816.43,128.231C816.435,128.994 816.294,131.742 816.197,133.542C818.042,135.832 817.682,139.189 815.394,141.037L813.383,142.155L811.114,142.451L809.817,142.209L808.634,141.691L807.535,140.866L806.538,139.622L805.805,137.913L805.48,136.092C805.263,133.756 805.772,129.588 805.763,128.301C805.745,125.589 805.437,115.932 804.094,108.046C803.834,106.516 803.327,104.696 802.864,103.199C798.407,108.427 795.003,114.007 792.269,117.84C790.467,120.367 788.815,122.263 787.407,123.321L784.784,124.714L782.285,125.065L780.577,124.783L779.029,124.112L776.832,122.202C776.067,121.259 775.256,119.75 774.498,117.528C772.713,122.098 770.911,127.795 769.253,132.531C767.494,137.555 765.791,141.664 764.575,143.328L763.135,144.853L761.096,145.935L758.916,146.168L756.674,145.5L754.939,144.082L753.832,142.218C753.393,141.135 752.946,139.041 752.814,135.646C752.29,122.23 751.311,108.792 751.311,95.363C751.311,92.419 753.701,90.029 756.644,90.029C759.588,90.029 761.978,92.419 761.978,95.363C761.978,103.197 762.317,111.035 762.702,118.869ZM848.118,108.595L848.365,108.338L849.547,107.594L850.685,107.206L852.206,107.083L853.711,107.387L855.107,108.118L856.294,109.276L857.083,110.645L857.623,112.52C857.975,114.37 858.075,118.121 858.475,119.799C859.654,124.742 859.821,126.257 861.803,131.145C862.079,131.826 862.451,132.502 862.825,133.102C862.857,132.915 862.884,132.728 862.904,132.544C863.215,129.617 865.844,127.493 868.771,127.804C871.698,128.116 873.822,130.745 873.511,133.672C872.533,142.865 867.42,145.928 863.379,145.789C859.872,145.668 854.931,142.583 851.918,135.153C851.288,133.599 850.816,132.346 850.435,131.224C849.624,132.572 848.626,133.955 847.365,135.391C841.598,141.961 837.414,144.535 835.12,145.02L833.769,145.187L832.24,145.075L830.642,144.568L829.202,143.661L827.625,141.792L826.658,139.114C826.002,135.597 827.687,127.814 831.035,119.443C835.752,107.646 843.46,94.611 848.736,90.972C851.159,89.301 854.483,89.912 856.154,92.335C857.825,94.758 857.215,98.082 854.792,99.753C853.277,100.798 851.627,103.034 849.85,105.777C849.272,106.668 848.693,107.612 848.118,108.595ZM845.233,113.907C843.665,117.006 842.194,120.265 840.939,123.404C840.196,125.262 839.528,127.076 838.964,128.786C839.093,128.643 839.221,128.499 839.348,128.354C842.228,125.074 842.934,122.171 843.688,119.223C844.132,117.485 844.582,115.732 845.233,113.907ZM886.176,101C888.605,96.048 892.508,92.575 896.992,90.89C903.364,88.496 911.188,89.535 918.219,95.821C927.834,104.418 931.518,117.483 934.515,128.241C935.374,131.325 936.181,134.179 937.143,136.572C937.81,138.23 938.455,139.643 939.447,140.513C941.661,142.452 941.884,145.825 939.944,148.039C938.004,150.253 934.632,150.476 932.418,148.536C928.789,145.356 926.414,138.912 924.239,131.104C921.735,122.113 919.144,110.957 911.109,103.773C907.637,100.668 903.891,99.693 900.744,100.876C897.551,102.075 895.261,105.306 894.499,109.659C893.064,117.853 893.405,126.222 893.434,134.501C893.447,138.22 893.271,140.457 893.055,141.496L892.29,143.564L891.414,144.708L890.27,145.593L888.851,146.169L887.2,146.32L885.846,146.062L884.403,145.343L883.458,144.514L882.538,143.191C882.009,142.184 881.158,139.134 880.372,134.794C877.814,120.668 874.109,90.238 873.46,86.704C872.928,83.809 874.847,81.027 877.742,80.496C880.638,79.964 883.42,81.883 883.951,84.778C884.232,86.311 885.088,92.885 886.176,101Z"/>
    <circle class="bubble-1" cx="523.709" cy="59.487" r="9.605"/>
    <ellipse class="bubble-3" cx="532.486" cy="13.689" rx="9.605" ry="9.65"/>
    <ellipse class="bubble-2" cx="542.091" cy="40.998" rx="8.776" ry="8.883"/>
    <path class="fish-body" d="M414.857,131.185C414.854,131.183 414.853,131.182 414.853,131.182C414.853,131.182 414.858,131.176 414.857,131.185ZM415.511,131.21C415.632,131.266 412.475,127.517 407.419,122.985C398.125,114.655 406.961,99.865 415.264,109.873C421.665,117.588 421.772,118.377 421.772,118.377L423.466,121.036C434.753,116.312 432.706,110.321 434.9,102.986C439.634,87.163 461.715,69.668 477.093,67.038C497.607,63.529 519.337,78.843 524.892,93.565C540.968,136.176 500.74,151.981 473.619,149.772C462.819,148.892 450.875,142.776 442.307,139.712C438.542,138.365 436.232,138.173 432.147,139.011C429.201,149.95 424.329,151.003 409.355,151.268C399.071,151.449 415.502,131.292 415.511,131.21Z"/>
    <path class="fish-mouth" d="M489.028,118.622L507.104,118.701C507.104,118.701 498.9,153.532 489.028,118.622Z"/>
    <path class="octo-stache" d="M483.007,106.815C483.007,106.815 486.044,110.626 490.59,106.463C495.136,102.299 495.26,102.801 495.26,102.801C495.26,102.801 497.937,106.288 501.688,103.406C508.04,108.228 506.916,107.274 506.916,107.274C506.916,107.274 510.97,108.649 514.104,106.829C512.46,109.664 510.146,110.127 509.014,110.975C509.014,110.975 507.244,112.929 498.313,109.684C492.487,112.494 492.623,112.09 492.623,112.09C492.623,112.09 484.257,113.548 483.007,106.815Z"/>
    <ellipse class='octo-left' cx="492.267" cy="91.195" rx="4.52" ry="7.871"/>
    <ellipse class='octo-right' cx="504.863" cy="91.195" rx="4.52" ry="7.871"/>
</svg>
