<svg class='jeremy-logo' width="100%" height="100%" viewBox="0 0 2483 565" version="1.1" xmlns="http://www.w3.org/2000/svg" xmlns:xlink="http://www.w3.org/1999/xlink" xml:space="preserve" xmlns:serif="http://www.serif.com/" style="fill-rule:evenodd;clip-rule:evenodd;stroke-linecap:round;stroke-linejoin:round;stroke-miterlimit:1.5;">
    <g class="j-letter">
        <g transform="matrix(1,0,0,1,-427.683,-1010.2)">
            <path d="M440.183,1039.48C571.182,1027.57 708.754,1040.31 840.345,1040.31" style="fill:none;stroke:#143168;stroke-width:25px;"/>
        </g>
        <g transform="matrix(1,0,0,1,-427.683,-1010.2)">
            <path d="M623.221,1046.22C611.846,1137.23 714.194,1259.9 673.345,1351.94C655.874,1391.31 536.653,1379.64 557.626,1330.45" style="fill:none;stroke:#143168;stroke-width:25px;"/>
        </g>
    </g>
    <g class="e-firstname-first" transform="matrix(1,0,0,1,-427.683,-1010.2)">
        <path d="M741.973,1316.2C788.296,1323.33 807.747,1261.95 764.253,1279.3C745.549,1286.76 737.282,1302.02 735.078,1322.2C733.141,1339.92 734.087,1355.76 751.575,1364.32C792.86,1384.5 821.031,1388.49 854.485,1356.65" style="fill:none;stroke:#143168;stroke-width:25px;"/>
    </g>
    <g class="r-letter" transform="matrix(1,0,0,1,-427.683,-1010.2)">
        <path d="M888.766,1279.15C883.118,1302.74 880.237,1328.15 881.784,1352.51C882.167,1358.55 882.178,1347.95 881.914,1342.71C881.062,1325.77 871.299,1291.64 888.417,1280.26C939.509,1246.29 949.747,1306.25 953.423,1307.56" style="fill:none;stroke:#143168;stroke-width:25px;"/>
    </g>
    <g class="e-firstname-second" transform="matrix(1,0,0,1,-427.683,-1010.2)">
        <path d="M989.909,1328.13C1022.21,1328.13 1071.02,1330.28 1057.05,1280.76C1055.45,1275.1 1050.2,1274.1 1045.16,1273.87C949.179,1269.38 998.934,1425.3 1094.76,1354.06" style="fill:none;stroke:#143168;stroke-width:25px;"/>
    </g>
    <g class="m-first" transform="matrix(1,0,0,1,-427.683,-1010.2)">
        <path d="M1133.28,1279.78C1133.28,1295.21 1133.36,1300.56 1132.97,1316.9C1132.53,1335.65 1130.75,1357.28 1136.38,1337.43C1141.42,1319.62 1148.8,1301.29 1157.45,1284.91C1187.94,1227.23 1162.65,1394.84 1185.82,1350.44C1191.27,1340 1194.75,1333.4 1201.1,1323.09C1217.34,1296.74 1231.65,1311.15 1230.84,1340.9C1230.26,1362.44 1227.24,1376.84 1243.87,1364.21" style="fill:none;stroke:#143168;stroke-width:25px;"/>
    </g>
    <g class="y-letter">
        <g transform="matrix(1,0,0,1,-427.683,-1010.2)">
            <path d="M1359.83,1229.17C1296.15,1320.55 1247.77,1438.75 1238.43,1549.49C1238.11,1553.39 1236.81,1565.05 1237.45,1561.19" style="fill:none;stroke:#143168;stroke-width:25px;"/>
        </g>
        <g transform="matrix(1,0,0,1,-427.683,-1010.2)">
            <path d="M1239.85,1265.96C1239.85,1287.05 1258.07,1391.56 1263.9,1375.03" style="fill:none;stroke:#143168;stroke-width:25px;"/>
        </g>
    </g>
    <g class="f-letter">
        <g transform="matrix(1,0,0,1,112.087,-1017.64)">
            <path d="M1627.47,1030.14C1582.12,1035.08 1536.25,1038.26 1490.76,1041.53C1431.59,1045.78 1424.29,1057.87 1434.02,1117.12C1448.01,1202.27 1445.89,1288.02 1445.89,1373.98" style="fill:none;stroke:#143168;stroke-width:25px;"/>
        </g>
        <g transform="matrix(1,0,0,1,112.087,-1017.64)">
            <path d="M1439.78,1239.04C1439.78,1228.61 1494.72,1230.99 1501.75,1230.66" style="fill:none;stroke:#143168;stroke-width:25px;"/>
        </g>
    </g>
    <g class="i-letter">
        <g class="i" transform="matrix(1,0,0,1,112.087,-1017.64)">
            <path d="M1564.23,1271.29C1554.49,1309.33 1542.64,1357.17 1548.58,1396.22" style="fill:none;stroke:#143168;stroke-width:25px;"/>
        </g>
        <g class="i-dot" transform="matrix(1,0,0,1,117.596,-1035.34)">
            <path d="M1565.25,1232.6C1561.64,1220.87 1561.86,1238.01 1561.74,1244.19" style="fill:none;stroke:#143168;stroke-width:25px;"/>
        </g>
    </g>
    <g class="s-letter" transform="matrix(1,0,0,1,112.087,-1017.64)">
        <path d="M1646.52,1265.79C1535.28,1296.25 1737.12,1313.12 1708.16,1382.23C1702.89,1394.82 1696.02,1400.79 1682.63,1403.94C1662.98,1408.57 1641.12,1407.94 1621.03,1406.76" style="fill:none;stroke:#143168;stroke-width:25px;"/>
    </g>
    <g class="h-letter" transform="matrix(1,0,0,1,112.087,-1017.64)">
        <path d="M1721.32,1073.06C1730.17,1159.85 1739.41,1245.66 1743.82,1332.85C1744.91,1354.54 1745.12,1376.26 1745.85,1397.96C1746.26,1410.11 1748.14,1446.49 1748.14,1434.34C1748.14,1405.53 1752.23,1371.08 1758.29,1342.76C1782.27,1230.54 1837.2,1353.06 1834.2,1416.95" style="fill:none;stroke:#143168;stroke-width:25px;"/>
    </g>
    <g class="m-letter" transform="matrix(1,0,0,1,112.087,-1017.64)">
        <path d="M1880.03,1299.96C1880.03,1335.37 1882.62,1370.8 1884,1406.17C1886.65,1474.03 1924.03,1275.64 1937.57,1342.14C1948.32,1394.96 1961.8,1342.84 1998.02,1304.59C2020.88,1280.45 2024.24,1372.17 2024.33,1387.16C2024.37,1392.18 2021,1414.73 2026.84,1410.01" style="fill:none;stroke:#143168;stroke-width:25px;"/>
    </g>
    <g class="a-letter" transform="matrix(1,0,0,1,112.087,-1017.64)">
        <path d="M2135.19,1280.11C2104.94,1300.97 2046.12,1452.95 2112.91,1376.86C2128.75,1358.81 2125.35,1344.56 2134.36,1326.54C2137.66,1319.94 2137.51,1340.96 2139.22,1348.14C2142.56,1362.13 2143.09,1366.41 2148.69,1380.24C2158.82,1405.22 2175.91,1406.96 2178.76,1380.13" style="fill:none;stroke:#143168;stroke-width:25px;"/>
    </g>
    <g class="n-letter" transform="matrix(1,0,0,1,112.087,-1017.64)">
        <path d="M2205.98,1287.31C2208.66,1301.94 2231.13,1490.64 2230.87,1416.58C2230.79,1393.81 2229.96,1370.79 2233.91,1348.25C2239.93,1313.88 2273.44,1299.67 2301.27,1324.56C2340.25,1359.41 2337.36,1425.33 2357.64,1443.09" style="fill:none;stroke:#143168;stroke-width:25px;"/>
    </g>
    <g class="circle" transform="matrix(1,0,0,1,-568.981,-1100.85)">
        <circle cx="1800.7" cy="1356.44" r="163.985" style="fill:rgb(235,235,235);stroke:#143168;stroke-width:12.5px;"/>
    </g>
    <g class="logo-body" transform="matrix(1,0,0,1,-427.683,-1010.2)">
        <path d="M1659.41,1283.92L1659.41,1429.76" style="fill:none;stroke:#143168;stroke-width:12.5px;"/>
    </g>
    <g class="logo-head" transform="matrix(1,0,0,1.04189,-428.57,-1077.17)">
        <circle cx="1660.29" cy="1261.53" r="35.045" style="fill:none;stroke:#143168;stroke-width:12.24px;"/>
    </g>
    <g class="logo-right-arm" transform="matrix(1.29717,-0.169853,0.0885341,0.755769,-1039.15,-415.15)">
        <path d="M1659.41,1336.7C1623.85,1356.12 1622.2,1314.1 1623.88,1301.18" style="fill:none;stroke:#143168;stroke-width:11.75px;"/>
    </g>
    <g class="logo-left-arm" transform="matrix(-1.29717,0.169853,-0.0885341,-0.755769,3502.6,1041.58)">
        <path d="M1659.41,1336.7C1623.85,1356.12 1622.2,1314.1 1623.88,1301.18" style="fill:none;stroke:#143168;stroke-width:11.75px;"/>
    </g>
</svg>