
<svg class='jeremy-logo' width="" height="100%" viewBox="0 0 566 113" version="1.1" style="fill-rule:evenodd;clip-rule:evenodd;stroke-linecap:round;stroke-linejoin:round;stroke-miterlimit:1.5;">
    <g id="j-letter" transform="matrix(0.228277,0,0,0.228277,-1.52013,-0.694447)">
        <g transform="matrix(1,0,0,1,-427.683,-1010.2)">
            <path d="M440.183,1039.48C571.182,1027.57 708.754,1040.31 840.345,1040.31" style="fill:none;stroke:black;stroke-width:23.36px;"/>
        </g>
        <g transform="matrix(1,0,0,1,-427.683,-1010.2)">
            <path d="M623.221,1046.22C611.846,1137.23 714.194,1259.9 673.345,1351.94C655.874,1391.31 536.653,1379.64 557.626,1330.45" style="fill:none;stroke:black;stroke-width:23.36px;"/>
        </g>
    </g>
    <g id="e-firstname-first" transform="matrix(0.228277,0,0,0.228277,-99.5246,-232.317)">
        <path d="M741.973,1316.2C788.296,1323.33 807.747,1261.95 764.253,1279.3C745.549,1286.76 737.282,1302.02 735.078,1322.2C733.141,1339.92 734.087,1355.76 751.575,1364.32C792.86,1384.5 821.031,1388.49 854.485,1356.65" style="fill:none;stroke:black;stroke-width:23.36px;"/>
    </g>
    <g id="r-letter" transform="matrix(0.228277,0,0,0.228277,-96.4098,-226.451)">
        <path d="M888.766,1279.15C883.118,1302.74 880.237,1328.15 881.784,1352.51C882.167,1358.55 882.178,1347.95 881.914,1342.71C881.062,1325.77 871.299,1291.64 888.417,1280.26C939.509,1246.29 949.747,1306.25 953.423,1307.56" style="fill:none;stroke:black;stroke-width:23.36px;"/>
    </g>
    <g id="e-firstname-second" transform="matrix(0.228277,0,0,0.228277,-95.984,-228.999)">
        <path d="M989.909,1328.13C1022.21,1328.13 1071.02,1330.28 1057.05,1280.76C1055.45,1275.1 1050.2,1274.1 1045.16,1273.87C949.179,1269.38 998.934,1425.3 1094.76,1354.06" style="fill:none;stroke:black;stroke-width:23.36px;"/>
    </g>
    <g id="m-first" transform="matrix(0.228277,0,0,0.228277,-96.2967,-228.441)">
        <path d="M1133.28,1279.78C1133.28,1295.21 1133.36,1300.56 1132.97,1316.9C1132.53,1335.65 1130.75,1357.28 1136.38,1337.43C1141.42,1319.62 1148.8,1301.29 1157.45,1284.91C1187.94,1227.23 1162.65,1394.84 1185.82,1350.44C1191.27,1340 1194.75,1333.4 1201.1,1323.09C1217.34,1296.74 1231.65,1311.15 1230.84,1340.9C1230.26,1362.44 1227.24,1376.84 1243.87,1364.21" style="fill:none;stroke:black;stroke-width:23.36px;"/>
    </g>
    <g id="y-letter" transform="matrix(0.228277,0,0,0.219418,6.74037,-9.63318)">
        <g transform="matrix(1,0,0,1,-427.683,-1010.2)">
            <path d="M1359.83,1229.17C1296.15,1320.55 1247.77,1438.75 1238.43,1549.49C1238.11,1553.39 1236.81,1565.05 1237.45,1561.19" style="fill:none;stroke:black;stroke-width:23.82px;"/>
        </g>
        <g transform="matrix(1,0,0,1,-427.683,-1010.2)">
            <path d="M1239.85,1265.96C1239.85,1287.05 1258.07,1391.56 1263.9,1375.03" style="fill:none;stroke:black;stroke-width:23.82px;"/>
        </g>
    </g>
    <g id="f-letter" transform="matrix(0.228277,0,0,0.228277,-0.313392,1.97515)">
        <g transform="matrix(1,0,0,1,112.087,-1017.64)">
            <path d="M1627.47,1030.14C1582.12,1035.08 1536.25,1038.26 1490.76,1041.53C1431.59,1045.78 1424.29,1057.87 1434.02,1117.12C1448.01,1202.27 1445.89,1288.02 1445.89,1373.98" style="fill:none;stroke:black;stroke-width:23.36px;"/>
        </g>
        <g transform="matrix(1,0,0,1,112.087,-1017.64)">
            <path d="M1439.78,1239.04C1439.78,1228.61 1494.72,1230.99 1501.75,1230.66" style="fill:none;stroke:black;stroke-width:23.36px;"/>
        </g>
    </g>
    <g id="i-letter" transform="matrix(0.228277,0,0,0.228277,0.526367,-3.10083)">
        <g id="i" transform="matrix(1,0,0,1,112.087,-1017.64)">
            <path d="M1564.23,1271.29C1554.49,1309.33 1542.64,1357.17 1548.58,1396.22" style="fill:none;stroke:black;stroke-width:23.36px;"/>
        </g>
        <g id="i-dot" transform="matrix(1,0,0,1,117.596,-1035.34)">
            <path d="M1565.25,1232.6C1561.64,1220.87 1561.86,1238.01 1561.74,1244.19" style="fill:none;stroke:black;stroke-width:23.36px;"/>
        </g>
    </g>
    <g id="s-letter" transform="matrix(0.228277,0,0,0.228277,25.409,-238.005)">
        <path d="M1646.52,1265.79C1535.28,1296.25 1737.12,1313.12 1708.16,1382.23C1702.89,1394.82 1696.02,1400.79 1682.63,1403.94C1662.98,1408.57 1641.12,1407.94 1621.03,1406.76" style="fill:none;stroke:black;stroke-width:23.36px;"/>
    </g>
    <g id="h-letter" transform="matrix(0.228277,0,0,0.228277,27.7002,-243.622)">
        <path d="M1721.32,1073.06C1730.17,1159.85 1739.41,1245.66 1743.82,1332.85C1744.91,1354.54 1745.12,1376.26 1745.85,1397.96C1746.26,1410.11 1748.14,1446.49 1748.14,1434.34C1748.14,1405.53 1752.23,1371.08 1758.29,1342.76C1782.27,1230.54 1837.2,1353.06 1834.2,1416.95" style="fill:none;stroke:black;stroke-width:23.36px;"/>
    </g>
    <g id="m-letter" transform="matrix(0.228277,0,0,0.228277,26.6836,-240.954)">
        <path d="M1880.03,1299.96C1880.03,1335.37 1882.62,1370.8 1884,1406.17C1886.65,1474.03 1924.03,1275.64 1937.57,1342.14C1948.32,1394.96 1961.8,1342.84 1998.02,1304.59C2020.88,1280.45 2024.24,1372.17 2024.33,1387.16C2024.37,1392.18 2021,1414.73 2026.84,1410.01" style="fill:none;stroke:black;stroke-width:23.36px;"/>
    </g>
    <g id="a-letter" transform="matrix(0.228277,0,0,0.228277,25.9807,-236.421)">
        <path d="M2135.19,1280.11C2104.94,1300.97 2046.12,1452.95 2112.91,1376.86C2128.75,1358.81 2125.35,1344.56 2134.36,1326.54C2137.66,1319.94 2137.51,1340.96 2139.22,1348.14C2142.56,1362.13 2143.09,1366.41 2148.69,1380.24C2158.82,1405.22 2175.91,1406.96 2178.76,1380.13" style="fill:none;stroke:black;stroke-width:23.36px;"/>
    </g>
    <g id="n-letter" transform="matrix(0.228277,0,0,0.228277,26.1201,-243.885)">
        <path d="M2205.98,1287.31C2208.66,1301.94 2231.13,1490.64 2230.87,1416.58C2230.79,1393.81 2229.96,1370.79 2233.91,1348.25C2239.93,1313.88 2273.44,1299.67 2301.27,1324.56C2340.25,1359.41 2337.36,1425.33 2357.64,1443.09" style="fill:none;stroke:black;stroke-width:23.36px;"/>
    </g>
    <g id="bubble-1" transform="matrix(0.0131111,0,0,0.0131111,283.326,13.8734)">
        <circle cx="2410.68" cy="1542.26" r="443.21" style="fill:rgb(190,125,180);"/>
    </g>
    <g id="bubble-3" transform="matrix(0.0131111,0,0,0.0131723,288.636,-13.9266)">
        <circle cx="2410.68" cy="1542.26" r="443.21" style="fill:rgb(233,153,75);"/>
    </g>
    <g id="bubble-2" transform="matrix(0.0119793,0,0,0.0121252,297.175,4.20887)">
        <circle cx="2410.68" cy="1542.26" r="443.21" style="fill:rgb(96,211,172);"/>
    </g>
    <g id="fish-body" transform="matrix(0.988843,0,0,0.988843,-68.6503,-1670.18)">
        <path d="M321.316,1767.36C321.315,1767.36 321.314,1767.36 321.314,1767.36C321.314,1767.36 321.317,1767.36 321.316,1767.36ZM321.716,1767.38C321.79,1767.41 319.859,1765.12 316.766,1762.35C311.08,1757.25 316.486,1748.2 321.565,1754.32C325.481,1759.05 325.547,1759.53 325.547,1759.53L326.583,1761.15C333.488,1758.26 332.236,1754.6 333.578,1750.11C336.474,1740.43 349.983,1729.73 359.391,1728.12C371.942,1725.97 385.236,1735.34 388.634,1744.35C398.47,1770.42 373.858,1780.09 357.266,1778.73C350.659,1778.2 343.351,1774.45 338.11,1772.58C335.806,1771.76 334.393,1771.64 331.894,1772.15C330.092,1778.84 327.111,1779.49 317.95,1779.65C311.658,1779.76 321.711,1767.43 321.716,1767.38Z" style="stroke:black;stroke-width:2.7px;"/>
    </g>
    <g id="fish-mouth" transform="matrix(1.95193,0,0,2.26756,-7.5942,-205.507)">
        <path d="M154.486,121.442L160.089,121.463C160.089,121.463 157.546,130.755 154.486,121.442Z" style="fill:white;stroke:black;stroke-width:0.6px;"/>
    </g>
    <g id="mustache" transform="matrix(0.963591,0,0,1.29334,149.825,-104.279)">
        <path d="M145.792,129.127C145.792,129.127 147.699,130.91 150.553,128.962C153.407,127.015 153.485,127.25 153.485,127.25C153.485,127.25 155.166,128.881 157.521,127.533C161.509,129.788 160.803,129.342 160.803,129.342C160.803,129.342 163.349,129.985 165.316,129.134C164.284,130.46 162.831,130.677 162.12,131.073C162.12,131.073 161.009,131.987 155.402,130.469C151.745,131.784 151.83,131.595 151.83,131.595C151.83,131.595 146.577,132.277 145.792,129.127Z" style="fill:white;stroke:white;stroke-width:2.34px;"/>
    </g>
    <g transform="matrix(0.317783,0,0,0.553317,-95.7577,-76.495)">
        <circle cx="1232.51" cy="234.534" r="8.606" style="fill:white;stroke:black;stroke-width:2.81px;"/>
    </g>
    <g transform="matrix(0.317783,0,0,0.553317,-103.345,-76.495)">
        <circle cx="1280.36" cy="234.534" r="8.606" style="fill:white;stroke:black;stroke-width:2.81px;"/>
    </g>
</svg>
