<svg class='mustache-fish' width="" height="100%" viewBox="0 0 391 391" version="1.1" xmlns="http://www.w3.org/2000/svg" xmlns:xlink="http://www.w3.org/1999/xlink" xml:space="preserve" xmlns:serif="http://www.serif.com/" style="fill-rule:evenodd;clip-rule:evenodd;stroke-linecap:round;stroke-linejoin:round;stroke-miterlimit:1.5;">
    <g id="bubble-1" transform="matrix(-0.0574349,0,0,0.0574349,210.43,58.3634)">
        <circle cx="2410.68" cy="1542.26" r="443.21" style="fill:rgb(190,125,180);"/>
    </g>
    <g id="bubble-3" transform="matrix(-0.0574349,0,0,0.057703,187.171,-63.4186)">
        <circle cx="2410.68" cy="1542.26" r="443.21" style="fill:rgb(233,153,75);"/>
    </g>
    <g id="bubble-2" transform="matrix(-0.0524771,0,0,0.0531163,149.764,16.0265)">
        <circle cx="2410.68" cy="1542.26" r="443.21" style="fill:rgb(96,211,172);"/>
    </g>
    <g id="fish-body" transform="matrix(-4.33177,0,0,4.33177,1752.31,-7318.86)">
        <path d="M321.316,1767.36C321.315,1767.36 321.314,1767.36 321.314,1767.36C321.314,1767.36 321.317,1767.36 321.316,1767.36ZM321.716,1767.38C321.79,1767.41 319.859,1765.12 316.766,1762.35C311.08,1757.25 316.486,1748.2 321.565,1754.32C325.481,1759.05 325.547,1759.53 325.547,1759.53L326.583,1761.15C333.488,1758.26 332.236,1754.6 333.578,1750.11C336.474,1740.43 349.983,1729.73 359.391,1728.12C371.942,1725.97 385.236,1735.34 388.634,1744.35C398.47,1770.42 373.858,1780.09 357.266,1778.73C350.659,1778.2 343.351,1774.45 338.11,1772.58C335.806,1771.76 334.393,1771.64 331.894,1772.15C330.092,1778.84 327.111,1779.49 317.95,1779.65C311.658,1779.76 321.711,1767.43 321.716,1767.38Z"/>
    </g>
    <g id="fish-mouth" transform="matrix(-8.5507,0,0,9.93337,1484.85,-902.664)">
        <path d="M154.486,121.442L160.089,121.463C160.089,121.463 157.546,130.755 154.486,121.442Z" style="fill:white;stroke:black;stroke-width:0.11px;"/>
    </g>
    <g id="mustache" transform="matrix(-4.22115,0,0,5.66567,795.252,-459.222)">
        <path d="M145.792,129.127C145.792,129.127 147.699,130.91 150.553,128.962C153.407,127.015 153.485,127.25 153.485,127.25C153.485,127.25 155.166,128.881 157.521,127.533C161.509,129.788 160.803,129.342 160.803,129.342C160.803,129.342 163.349,129.985 165.316,129.134C164.284,130.46 162.831,130.677 162.12,131.073C162.12,131.073 161.009,131.987 155.402,130.469C151.745,131.784 151.83,131.595 151.83,131.595C151.83,131.595 146.577,132.277 145.792,129.127Z" style="fill:white;stroke:white;stroke-width:0.2px;"/>
    </g>
    <g transform="matrix(-1.39209,0,0,2.42388,1871.06,-337.508)">
        <circle cx="1232.51" cy="234.534" r="8.606" style="fill:white;"/>
    </g>
    <g transform="matrix(-1.39209,0,0,2.42388,1904.3,-337.508)">
        <circle cx="1280.36" cy="234.534" r="8.606" style="fill:white;"/>
    </g>
</svg>
