<svg class='octo' height="100%" viewBox="0 0 600 600" version="1.1" style="fill-rule:evenodd;clip-rule:evenodd;stroke-linecap:round;stroke-linejoin:round;stroke-miterlimit:1.5;">
    <rect class="Artboard1" x="0" y="0" width="600" height="600" style="fill:none;"/>
    <g class="octo-legs">
        <path class='octo-leg' d="M176.751,306.986C180.355,305.594 184.411,307.39 185.803,310.993C187.195,314.597 185.4,318.653 181.796,320.046C171.949,323.849 159.392,332.382 147.484,336.483C137.438,339.943 127.767,340.356 119.692,335.352C104.989,326.241 102.248,312.916 102.106,297.337C101.994,285.034 103.708,271.137 98.474,257.655C97.075,254.053 98.864,249.994 102.466,248.596C106.067,247.198 110.127,248.987 111.525,252.588C117.416,267.765 115.979,283.361 116.106,297.21C116.202,307.787 117.083,317.266 127.066,323.451C133.151,327.222 140.674,324.49 148.32,321.102C158.383,316.643 168.513,310.168 176.751,306.986Z"/>
        <path class='octo-leg' d="M370.13,342.955C368.526,339.441 370.077,335.285 373.591,333.681C377.106,332.077 381.262,333.628 382.866,337.142C384.396,340.494 385.493,343.975 386.793,347.283C388.124,350.668 389.585,353.925 393.089,356.043C397.768,358.871 405.233,359.763 417.885,358.456C418.829,358.359 421.764,358.05 424.864,355.618C428.69,352.616 432.394,346.826 434.363,336.196C449.123,256.514 433.337,256.469 428.89,169.244C428.693,165.385 431.666,162.093 435.524,161.896C439.382,161.7 442.675,164.672 442.871,168.531C447.405,257.456 463.176,257.512 448.129,338.746C445.262,354.227 439.078,362.26 433.506,366.632C427.209,371.573 421.241,372.184 419.323,372.382C402.179,374.153 392.187,371.857 385.846,368.024C380.376,364.717 377.206,360.201 374.892,355.089C373.147,351.234 371.973,346.994 370.13,342.955Z"/>
        <path class='octo-leg' d="M204.401,345.344C206.308,341.984 210.584,340.805 213.944,342.712C217.304,344.62 218.483,348.896 216.575,352.256C203.074,376.036 209.292,382.614 213.509,413.562C217.66,444.027 207.683,461.008 199.886,476.763C198.172,480.225 193.97,481.645 190.507,479.932C187.045,478.218 185.625,474.016 187.338,470.553C194.147,456.796 203.262,442.055 199.637,415.453C194.809,380.024 188.945,372.568 204.401,345.344Z"/>
        <path class='octo-leg' d="M244.492,366.601C245.038,362.776 248.586,360.114 252.411,360.66C256.235,361.206 258.897,364.754 258.351,368.579C256.937,378.491 260.086,381.832 262.713,386.551C265.319,391.233 267.745,396.788 267.841,406.699C268.318,456.279 260.617,476.684 259.985,481.356C259.468,485.184 255.939,487.872 252.111,487.355C248.282,486.837 245.594,483.309 246.111,479.48C246.726,474.934 254.306,455.084 253.841,406.833C253.759,398.301 251.131,394.47 248.904,390.631C245.585,384.91 242.69,379.223 244.492,366.601Z"/>
        <path class='octo-leg' d="M311.093,468.736C312.507,470.321 317.174,475.797 319.168,480.481C320.158,482.806 320.574,485.054 320.46,486.945L319.864,489.842L318.183,492.735C315.686,495.683 311.265,496.05 308.317,493.553C306.062,491.644 305.318,488.609 306.208,485.969C305.799,485.143 305.035,483.658 304.423,482.778C302.255,479.654 299.814,477.058 299.795,477.031C295.052,470.222 295.868,463.262 299.186,454.983C302.317,447.169 308.15,437.565 306.092,423.582C303.633,406.865 296.314,402.04 291.371,397.018C286.251,391.815 282.693,386.524 283.845,375.672C284.253,371.83 287.703,369.042 291.545,369.449C295.386,369.857 298.175,373.307 297.767,377.149C297.023,384.154 300.555,386.446 304.228,389.999C310.227,395.804 317.257,403.286 319.943,421.544C322.086,436.108 317.829,446.96 314.028,455.815C312.805,458.664 311.639,461.25 310.949,463.684C310.438,465.484 310.141,467.137 311.093,468.736Z"/>
        <path class='octo-leg' d="M348.388,359.036C348.163,355.179 351.112,351.865 354.968,351.641C358.825,351.416 362.139,354.365 362.364,358.222C362.522,360.938 365.177,377.472 370.05,392.801C373.028,402.168 376.618,411.199 381.406,415.486C384.939,418.648 400.064,429.258 408.17,443.853C414.32,454.926 416.709,468.089 409.233,482.264C407.431,485.681 403.194,486.992 399.776,485.19C396.359,483.388 395.048,479.15 396.85,475.733C403.072,463.934 398.48,453.25 392.184,444.958C384.728,435.137 374.71,428.282 372.068,425.917C367.315,421.662 363.021,414.113 359.608,405.315C352.391,386.712 348.591,362.52 348.388,359.036Z"/>
        <path class='octo-leg' d="M320.161,373.283C319.43,369.489 321.916,365.816 325.71,365.085C329.504,364.355 333.177,366.841 333.908,370.635C335.199,377.336 335.74,377.029 338.727,384.737C349.89,413.55 347.502,441.17 348.108,460.218C348.247,464.571 348.538,468.404 349.339,471.588C350.05,474.414 351.042,476.642 353.55,477.512C357.2,478.778 359.135,482.769 357.869,486.419C356.603,490.069 352.612,492.005 348.962,490.739C340.528,487.813 336.258,480.769 334.8,469.872C332.432,452.166 338.043,421.724 325.672,389.795C322.183,380.791 321.668,381.11 320.161,373.283Z"/>
        <path class='octo-leg' d="M481.987,314.198C488.67,308.256 491.515,301.418 492.449,294.772C493.839,284.881 491.367,275.394 490.383,269.155C489.782,265.339 492.392,261.752 496.208,261.15C500.024,260.549 503.611,263.159 504.212,266.975C505.353,274.214 507.925,285.244 506.313,296.72C504.923,306.606 500.626,316.811 490.262,325.55C490.049,325.73 487.624,327.214 483.087,328.573C470.784,332.258 437.266,339.006 400.42,321.71C396.922,320.068 395.416,315.896 397.058,312.399C398.699,308.902 402.872,307.395 406.369,309.037C442.7,326.092 475.329,316.68 481.987,314.198Z"/>
    </g>
    <ellipse class="octo-bubble-4" cx="431.882" cy="140.486" rx="25.456" ry="25.575" style="fill:rgb(233,153,75);"/>
    <circle class="octo-bubble-3" cx="494.234" cy="245.317" r="25.456" style="fill:rgb(190,125,180);"/>
    <ellipse class="octo-bubble-2" cx="106.691" cy="235.526" rx="23.258" ry="23.542" style="fill:rgb(96,211,172);"/>
    <g class="octo-face">
        <circle class="octo-head" cx="292.199" cy="251.536" r="124.921"/>
        <path class="octo-stache" d="M249.964,271.612C249.814,271.2 249.948,270.738 250.296,270.47C250.644,270.202 251.125,270.191 251.485,270.442C254.896,272.782 261.629,275.231 270.333,267.26C283.087,255.58 283.435,256.987 283.435,256.987C283.435,256.987 290.945,266.769 301.469,258.685C319.288,272.213 316.134,269.536 316.134,269.536C316.134,269.536 325.02,272.549 333.154,269.725C333.568,269.558 334.042,269.693 334.306,270.052C334.57,270.412 334.556,270.904 334.273,271.249C329.941,276.625 324.753,277.872 322.02,279.919C322.02,279.919 317.055,285.401 292,276.298C275.236,283.747 275.517,283.421 275.517,283.421C275.517,283.421 255.418,286.676 249.964,271.612Z" style="stroke:rgb(18,18,18);stroke-width:1px;"/>
        <circle class="octo-left" cx="259.397" cy="226.393" r="7.039" style="stroke:rgb(18,18,18);stroke-width:1px;"/>
        <circle class="octo-right" cx="323.34" cy="226.393" r="7.039" style="stroke:rgb(18,18,18);stroke-width:1px;"/>
    </g>
</svg>
