<?xml version="1.0" encoding="UTF-8" standalone="no"?>
<!DOCTYPE svg PUBLIC "-//W3C//DTD SVG 1.1//EN" "http://www.w3.org/Graphics/SVG/1.1/DTD/svg11.dtd">
<svg width="100%" height="100%" viewBox="0 0 137 132" version="1.1" xmlns="http://www.w3.org/2000/svg" xmlns:xlink="http://www.w3.org/1999/xlink" xml:space="preserve" xmlns:serif="http://www.serif.com/" style="fill-rule:evenodd;clip-rule:evenodd;stroke-linecap:round;stroke-linejoin:round;stroke-miterlimit:1.5;">
    <g transform="matrix(1.34405,0,0,1.34405,-107.893,-167.118)">
        <g transform="matrix(1,0,0,1,-2198.22,-1690.7)">
            <path d="M2279.24,1840.68L2279.24,1861.29L2284.94,1861.29L2284.94,1878.53C2284.93,1881.56 2285.93,1883.45 2288.99,1883.44C2291.49,1883.39 2292.72,1881.35 2292.72,1878.94L2292.72,1861.63L2298.87,1861.63L2298.87,1840.68L2279.24,1840.68Z" style="fill:none;stroke:black;stroke-width:1.49px;"/>
        </g>
        <g transform="matrix(1,0,0,1,-2198.22,-1690.7)">
            <path d="M2282.93,1840.68L2282.93,1855.13" style="fill:none;stroke:black;stroke-width:1.12px;"/>
        </g>
        <g transform="matrix(1,0,0,1,-2195.26,-1690.7)">
            <path d="M2282.93,1840.68L2282.93,1855.13" style="fill:none;stroke:black;stroke-width:1.12px;"/>
        </g>
        <g transform="matrix(1,0,0,1,-2192.3,-1690.7)">
            <path d="M2282.93,1840.68L2282.93,1855.13" style="fill:none;stroke:black;stroke-width:1.12px;"/>
        </g>
        <g transform="matrix(1,0,0,1,-2189.33,-1690.7)">
            <path d="M2282.93,1840.68L2282.93,1855.13" style="fill:none;stroke:black;stroke-width:1.12px;"/>
        </g>
        <g transform="matrix(1,0,0,1,-2186.37,-1690.7)">
            <path d="M2282.93,1840.68L2282.93,1855.13" style="fill:none;stroke:black;stroke-width:1.12px;"/>
        </g>
    </g>
    <g transform="matrix(1.34405,0,0,1.34405,-3107.39,-2424.55)">
        <rect x="2346.39" y="1829.09" width="66.253" height="72.314" style="fill:none;stroke:black;stroke-width:1.12px;"/>
    </g>
    <g transform="matrix(1.34405,0,0,-1.34405,-3085.5,2469.55)">
        <path d="M2330.11,1812.22C2352.19,1845.11 2374.27,1844.97 2396.36,1812.22" style="fill:none;stroke:black;stroke-width:1.12px;"/>
    </g>
    <g transform="matrix(1.34405,0,0,1.34405,-3085.5,-2391.54)">
        <path d="M2296.42,1819.45L2316.05,1819.45" style="fill:none;stroke:black;stroke-width:1.12px;"/>
    </g>
    <g transform="matrix(1.34405,0,0,1.34405,-3372.32,-2427.24)">
        <path d="M2609.76,1840.68C2609.76,1840.68 2605.3,1861.95 2597.44,1846.4C2589.59,1830.85 2579.88,1843.34 2580.88,1846.99C2580.2,1851.37 2578.7,1861.29 2569.62,1847.24" style="fill:none;stroke:black;stroke-width:1.12px;"/>
    </g>
    <g transform="matrix(1.34405,0,0,1.34405,-3085.5,-2391.54)">
        <path d="M2356.22,1820.68C2356.22,1820.68 2348.88,1806.55 2341.87,1812.22C2334.65,1817.11 2330.11,1812.22 2330.11,1812.22" style="fill:none;stroke:black;stroke-width:1.12px;"/>
    </g>
    <g transform="matrix(3.00685,0,0,2.16995,-6968.91,-3916.44)">
        <path d="M2338.14,1834.94C2338.14,1834.94 2339.58,1837.57 2339.58,1838.69C2339.58,1839.79 2338.93,1840.68 2338.14,1840.68C2337.35,1840.68 2336.7,1839.79 2336.7,1838.69C2336.7,1837.57 2338.14,1834.94 2338.14,1834.94Z" style="fill:none;stroke:black;stroke-width:0.57px;"/>
    </g>
</svg>
