<?xml version="1.0" encoding="UTF-8" standalone="no"?>
<!DOCTYPE svg PUBLIC "-//W3C//DTD SVG 1.1//EN" "http://www.w3.org/Graphics/SVG/1.1/DTD/svg11.dtd">
<svg width="100%" height="100%" viewBox="0 0 129 129" version="1.1" xmlns="http://www.w3.org/2000/svg" xmlns:xlink="http://www.w3.org/1999/xlink" xml:space="preserve" xmlns:serif="http://www.serif.com/" style="fill-rule:evenodd;clip-rule:evenodd;stroke-linecap:round;stroke-linejoin:round;stroke-miterlimit:1.5;">
    <g transform="matrix(1,0,0,1,-1839.38,-1408.39)">
        <path d="M1903.6,1409.38L1903.6,1472.61L1966.83,1472.61C1966.83,1507.53 1938.52,1535.83 1903.6,1535.83C1868.71,1535.83 1840.38,1507.5 1840.38,1472.61C1840.38,1437.69 1868.68,1409.38 1903.6,1409.38Z" style="fill:none;stroke:black;stroke-width:2px;"/>
    </g>
    <g transform="matrix(-0.377073,5.34894e-17,-4.77547e-17,-0.319484,829.209,621.117)">
        <path d="M1936.43,1776.83L1996.9,1897.75C1956.13,1915.17 1915.82,1915.17 1875.97,1897.75L1936.43,1776.83Z" style="fill:none;stroke:black;stroke-width:5.72px;"/>
    </g>
    <g transform="matrix(1,0,0,1,-1829.85,-1787.32)">
        <g transform="matrix(14.2256,0,0,14.2256,1932.29,1819.28)">
        </g>
        <text x="1925.44px" y="1819.28px" style="font-family:'Avenir-Book', 'Avenir';font-size:14.226px;stroke:black;stroke-width:1px;stroke-linecap:butt;stroke-miterlimit:2;">?</text>
    </g>
</svg>
