
<svg width="100%" height="100%" viewBox="0 0 207 202" version="1.1" xmlns="http://www.w3.org/2000/svg" xmlns:xlink="http://www.w3.org/1999/xlink" style="fill-rule:evenodd;clip-rule:evenodd;stroke-linejoin:round;stroke-miterlimit:2;">
    <g id="Artboard1" transform="matrix(0.516578,0,0,0.502567,0,0)">
        <rect x="0" y="0" width="400" height="400" style="fill:none;"/>
        <clipPath class="_clip1">
            <rect x="0" y="0" width="400" height="400"/>
        </clipPath>
        <g clip-path="url(#_clip1)">
            <g class="whole-cog" transform="matrix(2.01465,0,0,1.79877,-164.817,-49.5865)">
                <g class="cog" transform="matrix(1.01235,0,0,1.01043,-3.23065,-1.09717)">
                    <path d="M281.089,34.142L267.482,52.731L239.411,51.328L231.709,29.324L204.384,33.455L202.209,55.968L176.32,66.989L158.335,53.696L135.918,70.47L146.806,91.935L131.055,113.792L107.258,110.176L96.611,135.337L115.691,149.714L112.856,179.065L90.399,187.564L94.213,214.573L118.086,215.971L129.803,241.295L123.203,248.837L282.572,250.563L281.089,34.142" style="fill:rgba(0 0 0 / .7);"/>
                </g>
                <g class="center-cog" transform="matrix(1.33137,0,0,1.33137,-84.7731,-55.6641)">
                    <ellipse cx="243.511" cy="175.848" rx="22.152" ry="21.047" style="fill: #FFB3E7;"/>
                </g>
            </g>
        </g>
    </g>
</svg>
