<?xml version="1.0" encoding="UTF-8" standalone="no"?>
<!DOCTYPE svg PUBLIC "-//W3C//DTD SVG 1.1//EN" "http://www.w3.org/Graphics/SVG/1.1/DTD/svg11.dtd">
<svg width="100%" height="100%" viewBox="0 0 226 162" version="1.1" xmlns="http://www.w3.org/2000/svg" xmlns:xlink="http://www.w3.org/1999/xlink" xml:space="preserve" xmlns:serif="http://www.serif.com/" style="fill-rule:evenodd;clip-rule:evenodd;stroke-linejoin:round;stroke-miterlimit:2;">
    <g transform="matrix(1,0,0,1,-109.44,-158.665)">
        <path d="M198.456,175.752C198.456,166.321 209.143,158.665 222.308,158.665C235.472,158.665 246.159,166.321 246.159,175.752C252.741,167.585 267.341,164.783 278.741,169.498C290.142,174.213 294.053,184.671 287.471,192.838C298.872,188.123 313.471,190.925 320.053,199.092C326.635,207.259 322.723,217.717 311.323,222.432C324.487,222.432 335.175,230.088 335.175,239.519C335.175,248.949 324.487,256.605 311.323,256.605C322.723,261.32 326.635,271.778 320.053,279.945C313.471,288.112 298.872,290.914 287.471,286.199C294.053,294.366 290.142,304.824 278.741,309.54C267.341,314.255 252.741,311.452 246.159,303.286C246.159,312.716 235.472,320.372 222.308,320.372C209.143,320.372 198.456,312.716 198.456,303.286C191.874,311.452 177.274,314.255 165.874,309.54C154.474,304.824 150.562,294.366 157.144,286.199C145.743,290.914 131.144,288.112 124.562,279.945C117.98,271.778 121.892,261.32 133.292,256.605C120.128,256.605 109.44,248.949 109.44,239.519C109.44,230.088 120.128,222.432 133.292,222.432C121.892,217.717 117.98,207.259 124.562,199.092C131.144,190.925 145.743,188.123 157.144,192.838C150.562,184.671 154.474,174.213 165.874,169.498C177.274,164.783 191.874,167.585 198.456,175.752Z" style="fill-opacity:0.25;"/>
    </g>
</svg>
