<?xml version="1.0" encoding="UTF-8" standalone="no"?>
<!DOCTYPE svg PUBLIC "-//W3C//DTD SVG 1.1//EN" "http://www.w3.org/Graphics/SVG/1.1/DTD/svg11.dtd">
<svg width="100%" height="100%" viewBox="0 0 1273 1176" version="1.1" xmlns="http://www.w3.org/2000/svg" xmlns:xlink="http://www.w3.org/1999/xlink" xml:space="preserve" xmlns:serif="http://www.serif.com/" style="fill-rule:evenodd;clip-rule:evenodd;stroke-linecap:round;stroke-linejoin:round;stroke-miterlimit:1.5;">
    <g id="head" transform="matrix(0.844093,0,0,0.844093,-1528.18,-500.481)">
        <circle cx="2410.68" cy="1542.26" r="443.21" style="fill:rgb(190,125,180);"/>
    </g>
    <g id="right-eye-circle" transform="matrix(0.844093,0,0,0.844093,-1136.35,-927.703)">
        <circle cx="2410.68" cy="1542.26" r="443.21" style="fill:rgb(233,153,75);"/>
    </g>
    <g id="left-eye-circle" transform="matrix(0.432647,0,0,0.432647,-851.219,-240.034)">
        <circle cx="2410.68" cy="1542.26" r="443.21" style="fill:rgb(96,211,172);"/>
    </g>
    <g id="nose" transform="matrix(0.988378,-0.152018,0.152018,0.988378,-2189.61,-1271.05)">
        <path d="M2398.32,2336.2C2417.57,2332.63 2461.04,2377.95 2466.25,2336.25" style="fill:none;stroke:black;stroke-width:12.5px;"/>
    </g>
    <g id="eyes" transform="matrix(1,0,0,1,-957.918,-657.835)">
        <g id="left-eye" transform="matrix(0.988378,-0.152018,0.152018,0.988378,-580.691,-559.965)">
            <path d="M1495.68,1855.14C1491.16,1866.78 1491.54,1872.24 1505.66,1869.39C1508.36,1868.84 1509.36,1865.69 1509.47,1863.34C1509.61,1860.15 1506.12,1868.92 1505.42,1872.04C1502.89,1883.4 1512.09,1882.5 1518.73,1876.15C1529.43,1865.89 1488.2,1877.09 1503.7,1878.25C1512.08,1878.87 1513.31,1868.71 1513.19,1868.76C1509.84,1870.04 1507.94,1874.99 1507.06,1878.13C1506.83,1878.92 1506.51,1880.64 1507.34,1880.59C1509.59,1880.44 1505.17,1880.25 1505.04,1882.37C1504.72,1887.37 1511.78,1885.35 1513.96,1884.4C1519.96,1881.81 1529.83,1866.95 1516.81,1865.92C1509.65,1865.36 1500.57,1875.17 1501.29,1882.22C1502.55,1894.68 1546.02,1883.59 1530.17,1866.7C1529.04,1865.5 1527.48,1864.76 1525.99,1864.06C1503.03,1853.25 1481.29,1888.13 1502.82,1878.81C1515.58,1873.28 1503.41,1863.27 1492.64,1872.04C1479.49,1882.76 1519.19,1869.76 1520.55,1869.52" style="fill:none;stroke:black;stroke-width:6.25px;"/>
        </g>
        <g id="right-eye" serif:id="right eye" transform="matrix(0.988378,-0.152018,0.152018,0.988378,41.716,-487.943)">
            <path d="M1495.68,1855.14C1491.16,1866.78 1491.54,1872.24 1505.66,1869.39C1508.36,1868.84 1509.36,1865.69 1509.47,1863.34C1509.61,1860.15 1506.12,1868.92 1505.42,1872.04C1502.89,1883.4 1512.09,1882.5 1518.73,1876.15C1529.43,1865.89 1488.2,1877.09 1503.7,1878.25C1512.08,1878.87 1513.31,1868.71 1513.19,1868.76C1509.84,1870.04 1507.94,1874.99 1507.06,1878.13C1506.83,1878.92 1506.51,1880.64 1507.34,1880.59C1509.59,1880.44 1505.17,1880.25 1505.04,1882.37C1504.72,1887.37 1511.78,1885.35 1513.96,1884.4C1519.96,1881.81 1529.83,1866.95 1516.81,1865.92C1509.65,1865.36 1500.57,1875.17 1501.29,1882.22C1502.55,1894.68 1546.02,1883.59 1530.17,1866.7C1529.04,1865.5 1527.48,1864.76 1525.99,1864.06C1503.03,1853.25 1481.29,1888.13 1502.82,1878.81C1515.58,1873.28 1503.41,1863.27 1492.64,1872.04C1479.49,1882.76 1519.19,1869.76 1520.55,1869.52" style="fill:none;stroke:black;stroke-width:6.25px;"/>
        </g>
    </g>
    <g id="mouth" transform="matrix(1,0,0,1,-977.551,-636.247)">
        <path d="M1396.85,1561.99C1446.35,1560.12 1495.35,1551.22 1544.36,1544.87C1557.43,1543.17 1604,1534.64 1617.97,1538.86C1619.6,1539.35 1604.33,1562.28 1603.73,1563.32C1596.17,1576.33 1590.23,1591.43 1578.39,1601.33C1551.65,1623.69 1502.24,1619.37 1470.68,1612.48C1451.11,1608.2 1430.03,1598.56 1417.13,1582.66C1412.24,1576.63 1413.17,1553.23 1410.03,1552.39" style="fill:none;stroke:black;stroke-width:14.58px;"/>
    </g>
</svg>
