
<svg width="100%" height="100%" viewBox="0 0 196 247" version="1.1" xmlns="http://www.w3.org/2000/svg" xmlns:xlink="http://www.w3.org/1999/xlink" style="fill-rule:evenodd;clip-rule:evenodd;stroke-linecap:round;stroke-linejoin:round;stroke-miterlimit:1.5;">
    <g class="Artboard6" transform="matrix(1,0,0,1,-1671.51,-5327.61)">
        <g>
            <rect x="1671.51" y="5328.56" width="195.239" height="246.046" style="fill:none;"/>
            <g transform="matrix(3.77342,0,0,3.77342,-4869.15,-15498.6)">
                <g class="mustache-fish-body" transform="matrix(0.530537,0,0,0.530537,1572.15,4621.64)">
                    <path d="M321.316,1767.36L321.314,1767.36C321.314,1767.36 321.317,1767.36 321.316,1767.36ZM321.716,1767.38C321.79,1767.41 319.859,1765.12 316.766,1762.35C311.08,1757.25 316.486,1748.2 321.565,1754.32C325.481,1759.05 325.547,1759.53 325.547,1759.53L326.583,1761.15C333.488,1758.26 332.236,1754.6 333.578,1750.11C336.474,1740.43 349.983,1729.73 359.391,1728.12C371.942,1725.97 385.236,1735.34 388.634,1744.35C398.47,1770.42 373.858,1780.09 357.266,1778.73C350.659,1778.2 343.351,1774.45 338.11,1772.58C335.806,1771.76 334.393,1771.64 331.894,1772.15C330.092,1778.84 327.111,1779.49 317.95,1779.65C311.658,1779.76 321.711,1767.43 321.716,1767.38Z"/>
                </g>
                <g class="fish-left-eye" transform="matrix(1.27161,0,0,1.6882,1204.7,2557.9)">
                    <ellipse cx="447.992" cy="1770.81" rx="0.848" ry="0.786" style="fill:white;"/>
                </g>
                <g class="fish-left-eye1" transform="matrix(1.27161,0,0,1.6882,1200.14,2557.9)">
                    <ellipse cx="447.992" cy="1770.81" rx="0.848" ry="0.786" style="fill:white;"/>
                </g>
                <g class="smile" transform="matrix(0.503195,0,0,0.533232,1693.14,5488.32)">
                    <path d="M154.486,121.442L160.089,121.463C160.089,121.463 157.546,130.755 154.486,121.442Z" style="fill:white;stroke:black;stroke-width:0.84px;"/>
                </g>
                <g class="mustache" transform="matrix(0.436582,0,0,0.436582,1704.38,5494.37)">
                    <path d="M145.792,129.127C145.792,129.127 147.699,130.91 150.553,128.962C153.407,127.015 153.485,127.25 153.485,127.25C153.485,127.25 155.166,128.881 157.521,127.533C161.509,129.788 160.803,129.342 160.803,129.342C160.803,129.342 163.349,129.985 165.316,129.134C164.284,130.46 162.831,130.677 162.12,131.073C162.12,131.073 161.009,131.987 155.402,130.469C151.745,131.784 151.83,131.595 151.83,131.595C151.83,131.595 146.577,132.277 145.792,129.127Z" style="fill:white;stroke:white;stroke-width:1px;"/>
                </g>
            </g>
        </g>
    </g>
</svg>
