<?xml version="1.0" encoding="UTF-8" standalone="no"?>
<!DOCTYPE svg PUBLIC "-//W3C//DTD SVG 1.1//EN" "http://www.w3.org/Graphics/SVG/1.1/DTD/svg11.dtd">
<svg width="100%" height="100%" viewBox="0 0 500 500" version="1.1" xmlns="http://www.w3.org/2000/svg" xmlns:xlink="http://www.w3.org/1999/xlink" xml:space="preserve" xmlns:serif="http://www.serif.com/" style="fill-rule:evenodd;clip-rule:evenodd;stroke-linejoin:round;stroke-miterlimit:2;">
    <g transform="matrix(2.52886,0,0,2.59856,-306.314,-246.632)">
        <path d="M229.548,95.362L232.697,110.283C238.792,111.191 244.766,112.748 250.511,114.928L260.904,103.539C266.72,106.112 272.266,109.228 277.464,112.843L272.526,127.298C277.338,131.049 281.711,135.305 285.566,139.988L300.419,135.182C304.134,140.241 307.336,145.638 309.98,151.298L298.277,161.413C300.516,167.003 302.117,172.817 303.05,178.748L318.382,181.813C319,188.002 319,194.234 318.382,200.423L303.05,203.488C302.117,209.419 300.516,215.233 298.277,220.823L309.98,230.938C307.336,236.598 304.134,241.995 300.419,247.054L285.566,242.248C281.711,246.931 277.338,251.187 272.526,254.938L277.464,269.393C272.266,273.008 266.72,276.124 260.904,278.697L250.511,267.308C244.766,269.488 238.792,271.045 232.697,271.953L229.548,286.874C223.188,287.475 216.784,287.475 210.425,286.874L207.276,271.953C201.181,271.045 195.207,269.488 189.462,267.308L179.069,278.697C173.253,276.124 167.707,273.008 162.509,269.393L167.447,254.938C162.635,251.187 158.262,246.931 154.407,242.248L139.554,247.054C135.839,241.995 132.637,236.598 129.993,230.938L141.696,220.823C139.457,215.233 137.856,209.419 136.923,203.488L121.591,200.423C120.973,194.234 120.973,188.002 121.591,181.813L136.923,178.748C137.856,172.817 139.457,167.003 141.696,161.413L129.993,151.298C132.637,145.638 135.839,140.241 139.554,135.182L154.407,139.988C158.262,135.305 162.635,131.049 167.447,127.298L162.509,112.843C167.707,109.228 173.253,106.112 179.069,103.539L189.462,114.928C195.207,112.748 201.181,111.191 207.276,110.283L210.425,95.362C216.784,94.761 223.188,94.761 229.548,95.362ZM219.986,171.877C230.899,171.877 239.758,180.498 239.758,191.118C239.758,201.738 230.899,210.359 219.986,210.359C209.074,210.359 200.215,201.738 200.215,191.118C200.215,180.498 209.074,171.877 219.986,171.877Z" style="fill-opacity:0.49;"/>
    </g>
</svg>
